<svg width="512" height="512" viewBox="0 0 512 512" fill="none" xmlns="http://www.w3.org/2000/svg">
<path d="M76.0183 161.957C63.7864 161.957 53.1939 157.987 44.2407 150.047C35.4136 142.106 31 131.078 31 116.962C31 103.476 35.3505 92.6363 44.0515 84.4438C52.7526 76.2513 63.5342 72.155 76.3966 72.155C89.259 72.155 100.041 75.9362 108.742 83.4985L97.2034 100.514C92.0332 96.2284 86.0434 94.0857 79.2339 94.0857C72.8027 94.0857 67.5064 96.1653 63.3451 100.325C59.1837 104.484 57.1031 110.03 57.1031 116.962C57.1031 124.02 59.1837 129.629 63.3451 133.788C67.5064 137.821 72.6766 139.838 78.8556 139.838C86.0434 139.838 92.4746 137.191 98.1491 131.897L111.011 148.345C101.428 157.42 89.7634 161.957 76.0183 161.957Z" fill="black"/>
<path d="M169.833 72.7222C175.508 72.7222 180.489 74.0456 184.777 76.6924L178.534 98.0559C175.13 96.6695 171.347 95.9763 167.185 95.9763C161.637 95.9763 157.223 97.6778 153.945 101.081C150.666 104.484 149.027 109.21 149.027 115.26V159.311H123.302V74.6128H145.055V87.8468C150.099 77.7637 158.358 72.7222 169.833 72.7222Z" fill="black"/>
<path d="M228.135 72.7222C239.863 72.7222 248.879 75.495 255.184 81.0407C261.615 86.4604 264.831 94.5899 264.831 105.429V159.311H243.267V147.4C236.332 156.601 226.496 161.201 213.76 161.201C206.067 161.201 199.762 159.122 194.844 154.962C190.053 150.803 187.657 145.005 187.657 137.569C187.657 127.99 191.503 120.617 199.195 115.449C206.887 110.282 217.417 107.698 230.783 107.698C233.305 107.698 235.954 107.824 238.728 108.076V104.673C238.728 97.3627 233.684 93.7076 223.596 93.7076C216.156 93.7076 207.644 95.9763 198.06 100.514L191.061 81.986C204.176 75.8101 216.534 72.7222 228.135 72.7222ZM222.272 143.619C227.19 143.619 231.288 141.791 234.566 138.136C237.971 134.481 239.737 129.376 239.863 122.822C237.088 122.444 234.251 122.255 231.351 122.255C225.424 122.255 220.758 123.327 217.354 125.469C213.949 127.612 212.246 130.7 212.246 134.733C212.246 140.657 215.588 143.619 222.272 143.619Z" fill="black"/>
<path d="M284.392 159.311V43C284.392 31.9543 293.346 23 304.392 23H310.117V139.311C310.117 150.356 301.162 159.311 290.117 159.311H284.392Z" fill="black"/>
<path d="M343.996 59.6772C339.456 59.6772 335.799 58.3538 333.025 55.707C330.377 52.9341 329.053 49.5311 329.053 45.4979C329.053 41.4646 330.377 38.1246 333.025 35.4778C335.673 32.705 339.33 31.3185 343.996 31.3185C348.661 31.3185 352.318 32.705 354.966 35.4778C357.615 38.1246 358.939 41.4646 358.939 45.4979C358.939 49.5311 357.615 52.9341 354.966 55.707C352.318 58.3538 348.661 59.6772 343.996 59.6772ZM351.133 159.311C340.088 159.311 331.133 150.356 331.133 139.311V74.6128H336.858C347.904 74.6128 356.858 83.5671 356.858 94.6128V159.311H351.133Z" fill="black"/>
<path d="M369.178 159.311V158.743L395.848 115.638L371.448 75.1799V74.6128H399.442L408.333 90.6827C410.224 94.4638 411.737 97.6148 412.872 100.136C413.377 98.8752 414.953 95.6612 417.601 90.4936L426.302 74.6128H454.107V75.1799L429.707 115.638L456.377 158.743V159.311H427.815L417.979 141.539C416.466 138.892 414.764 135.3 412.872 130.763C410.35 135.93 408.522 139.523 407.387 141.539L397.362 159.311H369.178Z" fill="black"/>
<path d="M484.081 161.768C479.793 161.768 476.073 160.445 472.921 157.798C469.894 155.151 468.381 151.37 468.381 146.455C468.381 141.413 469.894 137.569 472.921 134.922C476.073 132.275 479.793 130.952 484.081 130.952C488.494 130.952 492.214 132.275 495.241 134.922C498.393 137.569 499.969 141.413 499.969 146.455C499.969 151.37 498.393 155.151 495.241 157.798C492.214 160.445 488.494 161.768 484.081 161.768Z" fill="black"/>
<path d="M82.4495 224.715C93.9247 224.715 103.382 228.874 110.822 237.192C118.262 245.511 121.982 255.972 121.982 268.576C121.982 281.936 118.325 292.838 111.012 301.283C103.698 309.602 94.24 313.761 82.6386 313.761C71.92 313.761 63.156 310.232 56.3465 303.174C56.5987 310.736 56.7248 316.66 56.7248 320.945V353.085H31V226.794H52.5634V240.028C59.7512 229.819 69.7132 224.715 82.4495 224.715ZM76.2075 291.83C82.1342 291.83 86.8631 289.75 90.3939 285.591C94.0509 281.432 95.8793 275.949 95.8793 269.143C95.8793 262.337 94.0509 256.917 90.3939 252.884C86.8631 248.725 82.1342 246.645 76.2075 246.645C70.0285 246.645 65.0475 248.725 61.2644 252.884C57.4814 256.917 55.5899 262.274 55.5899 268.954C55.5899 275.76 57.4814 281.306 61.2644 285.591C65.1736 289.75 70.1546 291.83 76.2075 291.83Z" fill="black"/>
<path d="M185.23 224.904C190.905 224.904 195.886 226.227 200.173 228.874L193.931 250.237C190.526 248.851 186.743 248.158 182.582 248.158C177.034 248.158 172.62 249.859 169.341 253.262C166.063 256.665 164.423 261.392 164.423 267.442V311.492H138.699V226.794H160.451V240.028C165.495 229.945 173.755 224.904 185.23 224.904Z" fill="black"/>
<path d="M248.846 314.139C235.101 314.139 223.878 309.98 215.177 301.661C206.602 293.217 202.314 282.377 202.314 269.143C202.314 255.909 206.665 245.133 215.366 236.814C224.067 228.496 235.227 224.336 248.846 224.336C262.465 224.336 273.625 228.559 282.326 237.003C291.027 245.322 295.378 256.035 295.378 269.143C295.378 282.377 291.027 293.217 282.326 301.661C273.625 309.98 262.465 314.139 248.846 314.139ZM234.092 285.591C237.875 289.75 242.793 291.83 248.846 291.83C254.899 291.83 259.817 289.75 263.6 285.591C267.383 281.432 269.274 275.949 269.274 269.143C269.274 262.463 267.383 257.043 263.6 252.884C259.817 248.599 254.899 246.456 248.846 246.456C242.793 246.456 237.875 248.599 234.092 252.884C230.309 257.043 228.418 262.463 228.418 269.143C228.418 275.949 230.309 281.432 234.092 285.591Z" fill="black"/>
<path d="M324.671 211.859C320.131 211.859 316.474 210.535 313.7 207.888C311.052 205.116 309.728 201.713 309.728 197.679C309.728 193.646 311.052 190.306 313.7 187.659C316.474 184.886 320.131 183.5 324.671 183.5C329.337 183.5 332.994 184.823 335.642 187.47C338.416 190.117 339.803 193.52 339.803 197.679C339.803 201.713 338.416 205.116 335.642 207.888C332.994 210.535 329.337 211.859 324.671 211.859ZM294.407 355.543L291.191 333.612C299.135 333.108 304.558 331.028 307.458 327.373C310.485 323.718 311.998 317.794 311.998 309.602V246.794C311.998 235.749 320.952 226.794 331.998 226.794H337.722V310.547C337.722 325.167 334.444 336.133 327.887 343.443C321.329 350.753 310.169 354.786 294.407 355.543Z" fill="black"/>
<path d="M398.254 224.336C410.36 224.336 419.881 228.118 426.816 235.68C433.878 243.116 437.409 253.262 437.409 266.118C437.409 270.025 437.157 273.681 436.652 277.084H379.339C382.113 288.427 390.373 294.099 404.118 294.099C412.567 294.099 419.565 291.83 425.114 287.293L434.193 303.363C424.357 310.547 413.26 314.139 400.902 314.139C386.653 314.139 375.178 309.98 366.477 301.661C357.902 293.343 353.614 282.44 353.614 268.954C353.614 256.35 357.776 245.763 366.098 237.192C374.421 228.622 385.14 224.336 398.254 224.336ZM397.687 244.188C392.895 244.188 388.797 245.7 385.392 248.725C382.113 251.624 379.969 255.846 378.961 261.392H413.576C413.449 255.846 411.936 251.624 409.036 248.725C406.136 245.7 402.353 244.188 397.687 244.188Z" fill="black"/>
<path d="M76.0182 473C63.7864 473 53.1939 469.03 44.2407 461.089C35.4136 453.149 31 442.121 31 428.004C31 414.518 35.3505 403.679 44.0515 395.486C52.7525 387.294 63.5343 383.198 76.3966 383.198C89.259 383.198 100.041 386.979 108.742 394.541L97.2033 411.556C92.0332 407.271 86.0434 405.128 79.2339 405.128C72.8027 405.128 67.5064 407.208 63.3451 411.367C59.1837 415.526 57.103 421.072 57.103 428.004C57.103 435.062 59.1837 440.671 63.3451 444.83C67.5064 448.864 72.6766 450.88 78.8555 450.88C86.0433 450.88 92.4745 448.233 98.1491 442.94L111.011 459.388C101.428 468.463 89.7633 473 76.0182 473Z" fill="black"/>
<path d="M157.16 472.433C148.838 472.433 142.154 469.975 137.11 465.06C132.066 460.018 129.544 452.771 129.544 443.318V407.208L115.547 405.885V385.655H129.544V358.998H135.458C146.504 358.998 155.458 367.952 155.458 378.998V385.655H179.859V407.208H155.458V439.726C155.458 446.028 158.295 449.179 163.97 449.179C168.257 449.179 172.482 447.918 176.643 445.398L184.209 464.681C175.634 469.849 166.618 472.433 157.16 472.433Z" fill="black"/>
<path d="M223.516 472.433C210.906 472.433 199.62 469.282 189.658 462.98L198.548 445.965C205.988 450.502 213.491 452.771 221.057 452.771C224.209 452.771 226.668 452.204 228.434 451.069C230.325 449.809 231.271 448.107 231.271 445.965C231.271 443.696 230.073 441.805 227.677 440.293C225.281 438.781 221.561 437.079 216.517 435.188C208.951 432.416 203.213 429.013 199.304 424.979C195.521 420.82 193.63 415.526 193.63 409.098C193.63 401.158 196.593 394.982 202.52 390.571C208.447 386.159 215.95 383.954 225.029 383.954C235.117 383.954 244.764 386.475 253.969 391.516L245.836 408.153C239.278 404.876 233.163 403.238 227.488 403.238C220.931 403.238 217.652 405.191 217.652 409.098C217.652 411.241 218.787 413.069 221.057 414.581C223.327 416.094 226.984 417.795 232.028 419.686C248.421 425.483 256.617 434.243 256.617 445.965C256.617 454.157 253.591 460.648 247.538 465.438C241.611 470.101 233.604 472.433 223.516 472.433Z" fill="black"/>
<line x1="22" y1="312.5" x2="455" y2="312.5" stroke="#FD3259" stroke-width="5"/>
<line x1="22" y1="480.5" x2="265" y2="480.5" stroke="#FD3259" stroke-width="5"/>
</svg>
