<svg width="865" height="819" viewBox="0 0 865 819" fill="none" xmlns="http://www.w3.org/2000/svg">
<rect width="750" height="750" rx="200" fill="url(#paint0_linear_144:2156)"/>
<path d="M418.346 492.856C424.122 492.856 429.662 490.797 433.746 487.134C437.83 483.47 440.125 478.501 440.125 473.32V434.248C440.125 429.067 437.83 424.098 433.746 420.434C429.662 416.77 424.122 414.712 418.346 414.712C412.57 414.712 407.031 416.77 402.947 420.434C398.862 424.098 396.568 429.067 396.568 434.248V473.32C396.568 478.501 398.862 483.47 402.947 487.134C407.031 490.797 412.57 492.856 418.346 492.856ZM331.233 492.856C337.009 492.856 342.548 490.797 346.633 487.134C350.717 483.47 353.011 478.501 353.011 473.32V434.248C353.011 429.067 350.717 424.098 346.633 420.434C342.548 416.77 337.009 414.712 331.233 414.712C325.457 414.712 319.918 416.77 315.833 420.434C311.749 424.098 309.455 429.067 309.455 434.248V473.32C309.455 478.501 311.749 483.47 315.833 487.134C319.918 490.797 325.457 492.856 331.233 492.856ZM527.238 258.425H497.184L459.507 191.026C458.356 188.546 456.647 186.306 454.487 184.445C452.327 182.584 449.762 181.143 446.953 180.212C444.144 179.28 441.151 178.879 438.161 179.032C435.171 179.185 432.248 179.89 429.576 181.102C426.903 182.314 424.538 184.008 422.628 186.077C420.718 188.146 419.304 190.546 418.475 193.128C417.646 195.709 417.42 198.416 417.81 201.08C418.2 203.744 419.198 206.306 420.742 208.608L448.4 258.425H301.179L335.778 206.046C337.892 201.492 338.007 196.39 336.101 191.763C334.194 187.136 330.407 183.328 325.5 181.102C320.593 178.876 314.928 178.398 309.644 179.763C304.36 181.129 299.848 184.237 297.013 188.464L252.396 258.425H222.341C206.948 258.635 192.132 263.714 180.506 272.767C168.881 281.819 161.192 294.264 158.796 307.905C156.4 321.547 159.452 335.509 167.412 347.33C175.372 359.15 187.73 368.069 202.305 372.514L218.421 518.252C220.047 532.759 227.641 546.202 239.722 555.955C251.803 565.708 267.503 571.072 283.756 570.999H466.259C482.512 571.072 498.212 565.708 510.293 555.955C522.374 546.202 529.968 532.759 531.593 518.252L547.709 372.514C562.317 368.056 574.694 359.104 582.648 347.244C590.603 335.384 593.622 321.382 591.17 307.717C588.718 294.052 580.953 281.606 569.252 272.584C557.55 263.562 542.667 258.546 527.238 258.425ZM487.819 514.345C487.277 519.181 484.746 523.662 480.719 526.913C476.692 530.164 471.458 531.952 466.041 531.927H283.538C278.121 531.952 272.887 530.164 268.86 526.913C264.833 523.662 262.302 519.181 261.76 514.345L246.298 375.64H503.282L487.819 514.345ZM527.238 336.568H222.341C216.565 336.568 211.026 334.51 206.942 330.846C202.858 327.183 200.563 322.214 200.563 317.032C200.563 311.851 202.858 306.882 206.942 303.219C211.026 299.555 216.565 297.497 222.341 297.497H527.238C533.014 297.497 538.553 299.555 542.637 303.219C546.722 306.882 549.016 311.851 549.016 317.032C549.016 322.214 546.722 327.183 542.637 330.846C538.553 334.51 533.014 336.568 527.238 336.568Z" fill="url(#paint1_linear_144:2156)"/>
<path d="M830.879 554H818.538H559.245L510 603.91V770.807V784.419V819H544.121H556.462H815.755L865 769.09V602.193V588.581V554H830.879Z" fill="#41CD52"/>
<path d="M642.127 761.487C618.775 761.487 602.44 755.111 593.245 742.357C584.049 729.604 579.451 709.37 579.451 681.901C579.451 654.31 584.17 633.831 593.487 620.465C602.803 607.098 619.138 600.354 642.127 600.354C665.237 600.354 681.45 606.975 690.646 620.342C699.963 633.586 704.56 654.065 704.56 681.779C704.56 700.05 702.624 714.766 698.874 725.925C695.002 737.207 688.831 745.791 680.119 751.677L698.995 782.457L675.885 793.371L655.92 760.138C653.016 761.119 648.419 761.487 642.127 761.487ZM612.967 726.048C618.049 734.877 627.849 739.414 642.248 739.414C656.646 739.414 666.326 735 671.408 726.293C676.368 717.586 678.909 702.748 678.909 682.024C678.909 661.177 676.368 646.094 671.166 636.652C665.963 627.209 656.404 622.549 642.248 622.549C628.212 622.549 618.533 627.209 613.209 636.652C608.006 646.094 605.344 661.055 605.344 681.779C605.344 702.38 607.885 717.218 612.967 726.048Z" fill="white"/>
<path d="M791.193 663.385H760.218V713.54C760.218 722.859 760.944 728.991 762.275 732.056C763.606 735.122 767.115 736.594 772.56 736.594L790.951 735.858L792.04 755.724C781.997 757.686 774.375 758.667 769.051 758.667C756.346 758.667 747.635 755.724 742.916 749.838C738.197 743.951 735.777 732.792 735.777 716.36V663.507H718.717V642.292H735.898V609.305H760.218V642.292H791.193V663.385V663.385Z" fill="white"/>
<defs>
<linearGradient id="paint0_linear_144:2156" x1="2.18954e-06" y1="750" x2="750" y2="2.18954e-06" gradientUnits="userSpaceOnUse">
<stop stop-color="#222840"/>
<stop offset="1" stop-color="#3A4261"/>
</linearGradient>
<linearGradient id="paint1_linear_144:2156" x1="592" y1="179" x2="157.95" y2="570.944" gradientUnits="userSpaceOnUse">
<stop stop-color="white"/>
<stop offset="1" stop-color="white" stop-opacity="0.85"/>
</linearGradient>
</defs>
</svg>
